<svg id="Layer_1" data-name="Layer 1" xmlns="http://www.w3.org/2000/svg" viewBox="0 0 400 300" width="406" height="306" class="illustration styles_illustrationTablet__1DWOa"><title>#75_job interview_twocolour</title><path d="M58.63,131.85s-35.87-86.73,104-83.79S397.12,63.18,349.15,187.42l-126.1,20.74-113,5Z" fill="#e6e6e6" opacity="0.27"></path><path d="M59.83,202.64s-25.09-65.5,5-88,68.45-15.78,66.39,24.69-3.19,64.06-3.19,64.06Z" fill="#ffd200"></path><path d="M59.83,202.64s-25.09-65.5,5-88,68.45-15.78,66.39,24.69-3.19,64.06-3.19,64.06Z" opacity="0.08"></path><path d="M72.54,202.64s-25.1-65.5,5-88S146,98.9,144,139.37s-3.2,64.06-3.2,64.06Z" fill="#ffd200"></path><path d="M163.24,127.86a113.2,113.2,0,0,1,31.67,41c11.43,25.89,14.49,37.84-15.84,33.75S143.74,165,163.24,127.86Z" fill="#6893fc"></path><path d="M163.24,127.86a113.2,113.2,0,0,1,31.67,41c11.43,25.89,14.49,37.84-15.84,33.75S143.74,165,163.24,127.86Z" fill="#fff" opacity="0.46"></path><path d="M90.83,202.64S61.36,115.48,126.48,117c82.89,2,35.55,87.32,35.55,87.32Z" fill="#6893fc"></path><path d="M141.45,89.52s2.27,6.62,2.25,11.41a3.51,3.51,0,0,1-3.56,3.49c-2.41,0-5.66-.81-7.3-4.21l-3.5-5.43a6.29,6.29,0,0,1,1.07-7.19C133.56,83.89,140.28,85.41,141.45,89.52Z" fill="#f4a28c"></path><polygon points="132 94.78 126.48 117.04 138.97 119.21 138 102.57 132 94.78" fill="#f4a28c"></polygon><path d="M127.83,92l2,8.76A4.76,4.76,0,0,0,135,97.51a5.85,5.85,0,0,0-1.54-6.22,77.08,77.08,0,0,0,10.48-1.73c.7-.21,2.33-.26,1.65-3.36,0,0-.09-5.26-3.84-5.57S125.64,85,127.83,92Z" fill="#24285b"></path><polygon points="142.62 93.57 145.44 96.36 143.41 97.45 142.62 93.57" fill="#f4a28c"></polygon><ellipse cx="196.15" cy="53.09" rx="27.84" ry="23.17" fill="#24285b"></ellipse><polygon points="176.74 63.67 166.83 80.53 183.14 68.42 176.74 63.67" fill="#24285b"></polygon><circle cx="185.19" cy="53.09" r="3.44" fill="#6893fc"></circle><circle cx="196.22" cy="53.09" r="3.44" fill="#6893fc"></circle><circle cx="207.12" cy="53.09" r="3.44" fill="#6893fc"></circle><path d="M111.24,132.38s14.61-1.43,13.4,17.84-6.64,31.13,8.09,25.66,16.17-25.66,16.17-25.66l26.44,11.23s-3,28.41-12.41,41.19H118.25L97.56,183.09Z" opacity="0.08"></path><path d="M87.66,135.92l-.48,1s-22.46,57.3,7,71c30.72,14.21,56.09-51.17,56.09-51.17l-9.09-4.87-24,30.54a5.52,5.52,0,0,1-9.76-4.44c1.76-9.18,4.21-20.26,7.37-31C119.89,129.87,95.58,119.94,87.66,135.92Z" fill="#6893fc"></path><path d="M87.66,135.92l-.48,1s-22.46,57.3,7,71c30.72,14.21,56.09-51.17,56.09-51.17l-9.09-4.87-24,30.54a5.52,5.52,0,0,1-9.76-4.44c1.76-9.18,4.21-20.26,7.37-31C119.89,129.87,95.58,119.94,87.66,135.92Z" fill="#fff" opacity="0.46"></path><rect x="49.05" y="202.64" width="268.45" height="10.52" fill="#e6e6e6"></rect><rect x="49.05" y="213.16" width="268.45" height="37.55" fill="#c9c9c9"></rect><polygon points="146.84 202.64 154.68 185.77 202.86 185.77 209.38 202.64 146.84 202.64" fill="#f2f2f2"></polygon><polygon points="202.86 185.77 196.98 202.64 209.38 202.64 202.86 185.77" fill="#c9c9c9"></polygon><polygon points="263.17 95.86 265.5 109.33 277.63 110.22 270.25 88.67 263.17 95.86" fill="#f4a28c"></polygon><path d="M267.42,76a8.08,8.08,0,0,0-12.83,4.35c-1.64,6.17-2.77,15.2,4.39,15.93,10.95,1.13,12.86-13,12.86-13A14.8,14.8,0,0,0,267.42,76Z" fill="#f4a28c"></path><path d="M265.31,86.12s1.13-2.83,3.38-.88-.76,5.08-2.51,4.43S265.31,86.12,265.31,86.12Z" fill="#f4a28c"></path><path d="M262.58,83.77s2.29,14.52,9.33,9.75.13-7.82.9-15.25-3.14-10-11.34-11.8c-3.77-.8-6.05-.88-7.71-1.49a4.55,4.55,0,0,0-6.2,4.56C248.16,75.26,251.52,81.55,262.58,83.77Z" fill="#24285b"></path><path d="M309.89,116.74s-29.21-16.22-55.2-6.52C207.38,127.86,210,159.58,243.2,250.47l43.57.24Z" fill="#6893fc"></path><path d="M265.21,107.62s2.8,6.92-2,27-29.9,87.57-29.9,87.57l9.93,28.23h15.85l48.73-134.81S285.74,104.24,265.21,107.62Z" opacity="0.08"></path><path d="M255.26,250.71s-8.95-124.37,44.13-134,70.73,36,39.7,134Z" fill="#ffd200"></path><path d="M268.22,250.71s-9-124.37,44.13-134,70.73,36,39.7,134Z" fill="#ffd200"></path><polygon points="155.51 119.21 148.9 162.56 181.52 161.19 186.77 119.21 155.51 119.21" fill="#ffd200"></polygon><path d="M268.22,250.71s-9-124.37,44.13-134,70.73,36,39.7,134Z" opacity="0.08"></path><path d="M143.7,153.18s4.51-10.46,10.6-9.4,10,9.31-4,12.95Z" fill="#f4a28c"></path><polygon points="120.43 118.66 128.18 111.7 134.6 118.51 131.41 124.51 120.43 118.66" fill="#6893fc"></polygon><polygon points="134.6 118.51 138.62 114.68 140.99 119.92 137.8 124.51 134.6 118.51" fill="#6893fc"></polygon><polygon points="120.43 118.66 128.18 111.7 134.6 118.51 131.41 124.51 120.43 118.66" fill="#fff" opacity="0.46"></polygon><polygon points="134.6 118.51 138.62 114.68 140.99 119.92 137.8 124.51 134.6 118.51" fill="#fff" opacity="0.46"></polygon><path d="M259,141.79c-.9-17.08-22.58-24-33.3-10.66-8.29,10.29-14,25.44-13.35,47.79,1.35,45.93-29.19,71.79-29.19,71.79h30.93s26.33-30.21,40.62-79.29C258.29,159.05,259.37,149.36,259,141.79Z" fill="#6893fc"></path><path d="M259,141.79c-.9-17.08-22.58-24-33.3-10.66-8.29,10.29-14,25.44-13.35,47.79,1.35,45.93-29.19,71.79-29.19,71.79h30.93s26.33-30.21,40.62-79.29C258.29,159.05,259.37,149.36,259,141.79Z" fill="#fff" opacity="0.46"></path></svg>